<?xml version="1.0" standalone="no"?><!DOCTYPE svg PUBLIC "-//W3C//DTD SVG 1.1//EN" "http://www.w3.org/Graphics/SVG/1.1/DTD/svg11.dtd"><svg t="1687869943654" class="icon" viewBox="0 0 1024 1024" version="1.1" xmlns="http://www.w3.org/2000/svg" p-id="2299" xmlns:xlink="http://www.w3.org/1999/xlink" width="200" height="200"><path d="M699.6 411.7c-26.5 0-51.8-10-71.2-28.1-20.3-19-32-44.8-33-72.6-0.9-27.8 9-54.3 28.1-74.7 19.6-21 47.4-33 76.1-33 26.5 0 51.8 10 71.2 28.1 42 39.3 44.2 105.3 4.9 147.3-19.7 21-47.4 33-76.1 33z m0-168.4c-18 0-34.6 7.2-46.9 20.3-11.7 12.5-17.9 28.9-17.3 46 0.6 17.1 7.8 33 20.3 44.8 11.9 11.2 27.5 17.3 43.9 17.3 18 0 34.6-7.2 46.9-20.3 24.2-25.9 22.8-66.6-3-90.8-12-11.2-27.6-17.3-43.9-17.3z" fill="#1C1C1C" p-id="2300"></path><path d="M424.2 980.7c-14.6 0-27.6-4.9-37.4-14L62.6 663.3c-13.1-12.2-18.9-30.9-15.9-51.3 2.6-18 11.8-36.1 25.8-51.1l387-413.6c22.7-24.2 51.9-40.3 80.1-44.1l230.6-30.8c7.3-1 14.6-1.5 21.8-1.5 39.7 0 75.6 15 101.1 42.3 26.2 28 39.1 66.4 36.3 108.1L914 453.5c-1.9 28.4-16 58.6-38.7 82.9L488.4 950c-18.1 19.2-42 30.7-64.2 30.7zM792 111c-5.4 0-10.9 0.4-16.5 1.1l-230.6 30.8c-19 2.5-40 14.4-56.2 31.7l-387 413.6c-8.4 8.9-14 19.7-15.4 29.6-0.5 3.4-1.2 11.8 3.6 16.3l324.2 303.4c2.3 2.2 5.7 3.3 10.1 3.3 8.7 0 22.5-4.8 34.9-18.1l387-413.6c16.2-17.3 26.7-39.1 27.9-58.2l15.4-232.1c2-30.6-7.1-58.4-25.6-78.2C846 121.5 820.5 111 792 111z" fill="#1C1C1C" p-id="2301"></path></svg>